<svg xmlns="http://www.w3.org/2000/svg" viewBox="0 0 48 32" fill="none" class="moth-svg moth-tiny" aria-hidden="true">
  <path d="M23 16 C19 13 14 10 9 9 C5 8 2 10 1 13 C0 16 2 19 7 21 C12 23 18 21 22 18 Z"
    fill="#7c3aed" fill-opacity="0.6" stroke="#a855f7" stroke-width="0.7"/>
  <path d="M25 16 C29 13 34 10 39 9 C43 8 46 10 47 13 C48 16 46 19 41 21 C36 23 30 21 26 18 Z"
    fill="#7c3aed" fill-opacity="0.6" stroke="#a855f7" stroke-width="0.7"/>
  <path d="M22 18 C18 20 13 24 9 27 C6 29 3 30 2 27 C1 24 4 21 9 19 C14 17 20 17 22 18 Z"
    fill="#6d28d9" fill-opacity="0.5" stroke="#7c3aed" stroke-width="0.5"/>
  <path d="M26 18 C30 20 35 24 39 27 C42 29 45 30 46 27 C47 24 44 21 39 19 C34 17 28 17 26 18 Z"
    fill="#6d28d9" fill-opacity="0.5" stroke="#7c3aed" stroke-width="0.5"/>
  <ellipse cx="24" cy="18" rx="1.8" ry="9" fill="#0d0d1a" stroke="#7c3aed" stroke-width="0.6"/>
  <circle cx="24" cy="11" r="2" fill="#110d1f" stroke="#9333ea" stroke-width="0.6"/>
</svg>
