<svg xmlns="http://www.w3.org/2000/svg" viewBox="0 0 120 160" fill="none" class="rose-svg rose-accent" aria-hidden="true">
  <defs>
    <radialGradient id="rg1" cx="50%" cy="50%" r="60%">
      <stop offset="0%" stop-color="#c026d3" stop-opacity="0.8"/>
      <stop offset="100%" stop-color="#581c87" stop-opacity="0.6"/>
    </radialGradient>
    <radialGradient id="rg2" cx="50%" cy="50%" r="55%">
      <stop offset="0%" stop-color="#a21caf" stop-opacity="0.7"/>
      <stop offset="100%" stop-color="#3b0764" stop-opacity="0.8"/>
    </radialGradient>
    <radialGradient id="rg3" cx="50%" cy="60%" r="50%">
      <stop offset="0%" stop-color="#86198f" stop-opacity="0.75"/>
      <stop offset="100%" stop-color="#1a0a2e" stop-opacity="0.85"/>
    </radialGradient>
  </defs>

  <!-- Stem -->
  <path d="M60 130 C58 140 56 148 55 158" stroke="#2d4a1e" stroke-width="2.5" stroke-linecap="round"/>
  <!-- Thorns -->
  <path d="M58 143 C52 140 50 136 54 135" stroke="#2d4a1e" stroke-width="1.5" stroke-linecap="round"/>
  <path d="M57 150 C63 148 65 144 61 143" stroke="#2d4a1e" stroke-width="1.5" stroke-linecap="round"/>
  <!-- Leaves -->
  <path d="M55 138 C46 132 40 124 44 118 C48 112 55 116 58 122 C56 128 56 133 55 138 Z"
    fill="#1a3a10" fill-opacity="0.85" stroke="#2d4a1e" stroke-width="0.8"/>
  <path d="M62 134 C72 128 78 120 74 114 C70 108 63 112 61 118 C62 124 62 129 62 134 Z"
    fill="#1a3a10" fill-opacity="0.85" stroke="#2d4a1e" stroke-width="0.8"/>
  <!-- Leaf veins -->
  <path d="M52 132 C50 126 46 121 44 118" stroke="#2d4a1e" stroke-width="0.5" opacity="0.6"/>
  <path d="M64 128 C66 122 70 117 74 114" stroke="#2d4a1e" stroke-width="0.5" opacity="0.6"/>

  <!-- Outer petals (layer 1) — dark base -->
  <path d="M60 128 C44 122 28 112 22 96 C17 83 24 68 36 64 C30 72 32 82 38 90 C44 98 52 104 60 108 Z"
    fill="url(#rg3)" stroke="#6b21a8" stroke-width="0.8"/>
  <path d="M60 128 C76 122 92 112 98 96 C103 83 96 68 84 64 C90 72 88 82 82 90 C76 98 68 104 60 108 Z"
    fill="url(#rg3)" stroke="#6b21a8" stroke-width="0.8"/>
  <path d="M60 128 C52 108 36 96 32 76 C29 62 36 50 48 46 C42 56 44 66 50 74 C56 82 60 92 60 108 Z"
    fill="url(#rg3)" stroke="#6b21a8" stroke-width="0.8"/>
  <path d="M60 128 C68 108 84 96 88 76 C91 62 84 50 72 46 C78 56 76 66 70 74 C64 82 60 92 60 108 Z"
    fill="url(#rg3)" stroke="#6b21a8" stroke-width="0.8"/>

  <!-- Middle petals (layer 2) -->
  <path d="M60 118 C46 114 32 104 30 88 C28 74 36 62 48 60 C43 68 44 78 50 86 C56 92 58 104 60 112 Z"
    fill="url(#rg2)" stroke="#7e22ce" stroke-width="0.7"/>
  <path d="M60 118 C74 114 88 104 90 88 C92 74 84 62 72 60 C77 68 76 78 70 86 C64 92 62 104 60 112 Z"
    fill="url(#rg2)" stroke="#7e22ce" stroke-width="0.7"/>
  <path d="M60 116 C44 110 32 96 36 78 C39 64 50 54 60 52 C50 60 48 72 52 82 C56 90 58 104 60 112 Z"
    fill="url(#rg2)" stroke="#7e22ce" stroke-width="0.7"/>
  <path d="M60 116 C76 110 88 96 84 78 C81 64 70 54 60 52 C70 60 72 72 68 82 C64 90 62 104 60 112 Z"
    fill="url(#rg2)" stroke="#7e22ce" stroke-width="0.7"/>

  <!-- Inner petals (layer 3) — brighter, lighter -->
  <path d="M60 108 C48 104 38 94 40 78 C42 66 52 58 60 56 C52 64 52 74 56 82 C58 90 60 100 60 108 Z"
    fill="url(#rg1)" stroke="#9333ea" stroke-width="0.6"/>
  <path d="M60 108 C72 104 82 94 80 78 C78 66 68 58 60 56 C68 64 68 74 64 82 C62 90 60 100 60 108 Z"
    fill="url(#rg1)" stroke="#9333ea" stroke-width="0.6"/>
  <path d="M60 106 C50 98 44 84 50 70 C54 62 60 58 60 58 C60 66 58 78 58 88 C58 96 60 102 60 106 Z"
    fill="url(#rg1)" stroke="#9333ea" stroke-width="0.6"/>
  <path d="M60 106 C70 98 76 84 70 70 C66 62 60 58 60 58 C60 66 62 78 62 88 C62 96 60 102 60 106 Z"
    fill="url(#rg1)" stroke="#9333ea" stroke-width="0.6"/>

  <!-- Center bud -->
  <ellipse cx="60" cy="72" rx="10" ry="14" fill="#4a044e" stroke="#9333ea" stroke-width="0.8"/>
  <ellipse cx="60" cy="70" rx="6" ry="9" fill="#6b21a8" fill-opacity="0.9" stroke="#a855f7" stroke-width="0.6"/>
  <ellipse cx="60" cy="68" rx="3.5" ry="5.5" fill="#9333ea" fill-opacity="0.8"/>
  <ellipse cx="60" cy="66" rx="2" ry="3" fill="#c084fc" fill-opacity="0.7"/>

  <!-- Petal highlights -->
  <path d="M44 80 C46 72 50 66 54 64" stroke="#e9d5ff" stroke-width="0.5" opacity="0.3" fill="none"/>
  <path d="M76 80 C74 72 70 66 66 64" stroke="#e9d5ff" stroke-width="0.5" opacity="0.3" fill="none"/>
</svg>
